<?xml version="1.0" standalone="no"?>
<!DOCTYPE svg PUBLIC "-//W3C//DTD SVG 20010904//EN"
 "http://www.w3.org/TR/2001/REC-SVG-20010904/DTD/svg10.dtd">
<svg version="1.0" xmlns="http://www.w3.org/2000/svg"
 width="512.000000pt" height="512.000000pt" viewBox="0 0 512.000000 512.000000"
 preserveAspectRatio="xMidYMid meet">
<metadata>
Created by potrace 1.11, written by Peter Selinger 2001-2013
</metadata>
<g transform="translate(0.000000,512.000000) scale(0.100000,-0.100000)"
fill="#000000" stroke="none">
<path d="M0 2560 l0 -2560 2560 0 2560 0 0 2560 0 2560 -2560 0 -2560 0 0
-2560z m2735 2050 c720 -65 1350 -496 1669 -1141 240 -485 279 -1057 106
-1564 -349 -1026 -1415 -1605 -2465 -1339 -446 113 -857 390 -1138 768 -368
495 -495 1135 -342 1732 232 904 1038 1538 1975 1553 47 0 135 -4 195 -9z"/>
<path d="M2360 4529 c-373 -38 -751 -195 -1050 -436 -95 -77 -258 -246 -331
-343 -346 -463 -474 -1045 -353 -1609 58 -273 176 -532 345 -761 80 -109 300
-329 409 -409 708 -523 1665 -519 2370 8 97 73 266 236 343 331 631 782 585
1893 -107 2619 -415 435 -1027 660 -1626 600z m178 -205 c21 -24 22 -28 8 -36
-12 -6 -24 -3 -43 11 -32 26 -44 26 -77 0 -30 -24 -34 -63 -10 -97 20 -29 78
-31 96 -2 16 26 48 26 48 1 0 -32 -47 -61 -97 -61 -36 0 -50 6 -74 29 -52 52
-33 153 35 182 35 15 89 2 114 -27z m134 -22 l-4 -47 48 46 c39 37 54 45 73
40 23 -6 22 -7 -19 -45 l-44 -39 30 -55 c39 -74 39 -72 15 -72 -14 0 -30 15
-47 43 -15 23 -28 44 -30 46 -10 11 -34 -25 -34 -50 0 -23 -5 -29 -21 -29 -21
0 -21 3 -14 103 4 56 9 105 11 109 2 3 12 4 23 1 15 -4 18 -12 13 -51z m-388
-71 c31 -48 56 -91 56 -94 0 -17 -35 -15 -47 3 -23 32 -100 23 -105 -12 -3
-21 -33 -47 -42 -37 -3 3 1 46 9 95 23 136 23 134 49 134 20 0 35 -17 80 -89z
m773 -11 c12 -41 22 -77 23 -80 1 -3 10 23 21 58 15 48 24 62 39 62 11 0 20
-4 20 -8 0 -20 -62 -202 -68 -202 -22 0 -41 32 -57 93 -10 37 -21 70 -26 72
-4 3 -15 -24 -24 -60 -19 -68 -21 -70 -44 -56 -12 8 -10 25 15 106 27 90 30
96 54 93 22 -3 28 -12 47 -78z m-977 45 c0 -7 -13 -18 -29 -23 l-30 -11 27
-81 c22 -68 24 -82 12 -90 -21 -13 -26 -6 -55 80 -26 77 -27 79 -51 70 -36
-14 -44 -12 -44 8 0 14 19 24 78 43 79 27 92 27 92 4z m1196 -69 c-45 -110
-80 -186 -85 -186 -3 0 -12 4 -19 9 -11 6 -8 21 14 72 15 35 33 78 40 96 11
24 18 30 34 26 12 -3 19 -11 16 -17z m-1417 -20 c15 -18 -1 -29 -44 -30 -24
-1 -31 -6 -33 -25 -4 -23 -2 -24 47 -17 46 6 54 4 77 -19 28 -28 26 -55 -5
-88 -39 -41 -146 -24 -112 17 10 12 17 14 25 6 15 -15 42 -12 61 6 26 26 0 45
-47 35 -53 -12 -82 5 -86 51 -2 29 2 40 24 57 31 24 76 28 93 7z m1589 -56
c48 -30 71 -100 32 -100 -11 0 -20 7 -20 15 0 23 -46 65 -70 65 -30 0 -70 -44
-70 -76 0 -38 27 -64 67 -64 39 0 43 12 8 28 -26 12 -32 26 -15 37 12 7 90
-32 90 -45 0 -6 -11 -28 -25 -50 -17 -26 -30 -37 -40 -34 -8 4 -12 10 -9 15 3
5 -4 9 -16 9 -52 0 -99 47 -100 98 0 95 89 150 168 102z m-1823 -130 c25 -38
48 -70 51 -70 4 0 22 10 41 21 27 17 37 19 46 10 13 -13 -12 -38 -73 -74 l-30
-18 -55 85 c-30 46 -55 89 -55 94 0 9 9 16 28 21 1 1 22 -30 47 -69z m1993 18
c8 -8 5 -18 -13 -40 -31 -37 -31 -40 5 -66 38 -28 42 -28 69 9 21 28 25 30 39
16 14 -14 10 -23 -43 -89 -32 -40 -62 -77 -66 -82 -5 -5 -15 -4 -24 4 -14 11
-12 16 11 47 l26 35 -33 29 -34 29 -31 -35 c-27 -30 -33 -33 -44 -21 -6 9 -8
21 -4 28 17 28 117 148 123 148 4 0 12 -5 19 -12z m-2147 -140 l56 -61 37 28
c31 24 39 26 47 14 13 -20 13 -20 -42 -63 -42 -32 -53 -36 -63 -25 -78 88
-117 141 -112 154 9 24 18 19 77 -47z m2382 -74 c51 -55 55 -63 41 -75 -14
-11 -19 -9 -36 14 l-20 27 -66 -60 c-58 -52 -68 -58 -81 -45 -13 12 -6 22 50
74 l64 59 -25 26 c-21 23 -22 29 -10 36 20 13 19 14 83 -56z m-2465 -8 c34
-35 62 -72 62 -81 0 -52 -65 -104 -109 -87 -10 4 -44 31 -76 60 -50 46 -56 55
-44 67 12 12 22 7 71 -36 64 -56 100 -63 106 -20 3 18 -10 38 -52 80 -44 44
-54 59 -44 69 7 7 15 12 18 12 4 0 35 -29 68 -64z m-203 -126 c3 -5 -5 -26
-19 -47 l-25 -37 21 -14 c19 -14 22 -13 39 9 10 13 19 27 19 32 0 9 12 9 29
-2 11 -7 10 -15 -9 -42 l-24 -32 31 -26 c25 -21 29 -30 22 -44 -9 -15 -16 -13
-68 24 -32 22 -71 51 -86 64 l-29 22 34 51 c34 50 53 62 65 42z m2805 -27 c13
-17 20 -38 18 -57 -4 -44 -32 -41 -38 4 -3 24 -11 36 -24 38 -31 6 -36 -11
-18 -61 l17 -49 -28 -24 c-36 -30 -48 -30 -86 2 -25 21 -31 34 -31 64 0 41 9
54 32 45 9 -4 13 -17 10 -38 -5 -40 19 -67 42 -48 13 11 12 18 -2 56 -14 40
-14 45 1 69 25 37 77 36 107 -1z m39 -375 c114 -246 174 -553 153 -786 -6 -81
-7 -73 -13 108 -9 271 -50 452 -152 674 -39 84 -40 86 -31 86 3 0 22 -37 43
-82z m-2968 -19 c-104 -226 -160 -507 -148 -744 4 -69 2 -104 -3 -95 -15 23
-11 273 5 385 24 169 68 316 140 472 19 42 37 74 40 71 3 -3 -12 -43 -34 -89z
m1593 -178 c81 -40 122 -89 150 -178 7 -23 8 -22 -155 -69 -12 -3 -23 7 -36
32 -61 119 -288 82 -257 -41 10 -41 37 -54 160 -81 65 -15 136 -35 156 -45
208 -106 202 -382 -10 -486 -53 -26 -66 -28 -177 -28 -111 0 -124 2 -177 28
-94 46 -164 131 -183 223 l-6 30 73 17 c40 10 83 20 96 23 16 5 22 2 22 -11 0
-37 34 -86 76 -111 56 -33 153 -36 193 -6 51 38 53 107 5 139 -14 9 -69 25
-122 35 -132 24 -217 68 -259 131 -84 125 -57 268 69 370 61 49 130 68 229 64
74 -3 96 -8 153 -36z m-534 -76 l0 -95 -190 0 -190 0 0 -95 0 -95 165 0 165 0
0 -95 0 -95 -165 0 -165 0 -2 -167 -3 -168 -97 -3 -98 -3 0 456 0 455 290 0
290 0 0 -95z m1180 -172 l165 -268 3 268 2 267 105 0 105 0 -2 -452 -3 -453
-99 -3 c-61 -2 -103 1 -111 8 -8 6 -94 140 -192 297 l-178 286 -5 -294 -5
-294 -97 -3 -98 -3 0 456 0 455 123 0 122 0 165 -267z m-2272 -545 c13 -13 16
-47 6 -72 -7 -17 -34 -22 -34 -6 0 6 5 10 11 10 6 0 9 12 7 28 -5 41 -31 34
-42 -11 -11 -41 -44 -59 -71 -37 -19 16 -19 64 0 80 13 10 14 7 12 -26 -2 -47
22 -55 34 -11 14 53 49 73 77 45z m3145 -48 c36 -7 57 -16 54 -23 -2 -7 -32
-19 -67 -28 l-64 -16 52 -37 c29 -21 52 -44 52 -52 0 -18 1 -18 -127 11 -37 9
-27 28 10 20 17 -4 43 -9 57 -12 18 -4 10 5 -28 33 -47 33 -52 40 -37 50 9 7
37 15 63 19 42 7 44 9 22 15 -14 5 -37 11 -52 14 -16 4 -28 11 -28 17 0 6 8 8
18 5 9 -2 43 -10 75 -16z m-3137 -99 c-35 -37 -34 -52 4 -44 17 3 30 1 30 -4
0 -11 -133 -44 -141 -35 -4 4 -9 21 -12 39 -10 50 38 84 71 51 10 -10 17 -8
34 9 31 32 45 16 14 -16z m3136 -120 c9 -8 -12 -81 -24 -81 -11 0 -10 13 2 44
8 21 6 26 -12 32 -20 6 -38 -8 -38 -33 0 -6 -5 -15 -11 -19 -9 -5 -10 3 -5 30
4 20 5 36 2 36 -2 0 -11 3 -19 6 -10 3 -18 -5 -25 -25 -15 -43 -34 -41 -21 2
6 17 12 37 14 44 3 9 21 6 67 -9 35 -11 66 -24 70 -27z m-3083 17 c25 -67 26
-64 -41 -87 -78 -27 -85 -26 -92 3 -3 13 -9 31 -12 40 -3 9 -2 16 4 16 6 0 15
-13 21 -30 11 -32 12 -33 35 -24 13 5 15 14 10 42 -5 25 -4 33 5 28 6 -4 11
-13 11 -19 0 -23 17 -38 34 -31 14 5 16 14 11 45 -7 43 1 52 14 17z m2986
-114 c52 -21 65 -30 60 -43 -4 -9 -12 -29 -17 -44 -7 -18 -14 -25 -20 -19 -5
5 -4 20 3 36 11 23 10 29 -2 37 -22 13 -26 11 -39 -21 -15 -36 -33 -30 -20 6
20 51 -23 63 -44 13 -7 -17 -16 -27 -20 -21 -6 10 19 82 29 82 3 0 34 -12 70
-26z m-2945 -2 c0 -4 -16 -31 -36 -60 -20 -30 -33 -56 -31 -59 3 -2 18 2 34
10 42 22 73 30 73 19 0 -15 -129 -67 -140 -56 -6 6 3 29 25 61 19 29 35 55 35
58 0 3 -17 -2 -37 -11 -21 -9 -44 -18 -50 -21 -7 -3 -13 0 -13 5 0 6 24 22 53
36 53 25 87 32 87 18z m2940 -142 c28 35 25 8 -5 -50 -29 -57 -40 -64 -30 -20
6 28 4 31 -49 57 -30 14 -53 30 -50 35 3 4 30 -5 60 -20 l55 -27 19 25z
m-2882 4 c-3 -3 5 -16 18 -29 32 -32 31 -70 -2 -100 -35 -32 -78 -32 -109 0
-25 25 -30 41 -19 69 10 26 25 18 18 -9 -13 -54 55 -86 96 -45 24 24 25 47 3
72 -28 31 -55 22 -34 -12 6 -8 7 -18 4 -23 -3 -5 -14 6 -25 23 -10 18 -18 33
-16 35 23 18 82 35 66 19z m1322 -47 c0 -6 -26 -37 -57 -69 l-57 -58 59 -60
c49 -49 58 -63 49 -77 -6 -9 -16 -19 -22 -21 -16 -5 -162 137 -162 156 0 9 33
49 74 90 66 66 76 72 95 62 12 -6 21 -16 21 -23z m217 -40 c40 -41 73 -80 73
-87 0 -20 -146 -163 -161 -158 -7 2 -17 12 -23 21 -9 14 0 28 49 77 l59 60
-57 58 c-31 32 -57 62 -57 68 0 13 21 34 34 34 5 0 43 -33 83 -73z m1249 -8
c30 -17 52 -35 49 -40 -3 -5 -31 5 -61 23 -50 28 -57 29 -71 15 -22 -22 -10
-43 42 -75 42 -25 57 -42 36 -42 -22 0 -106 67 -109 87 -3 22 29 63 49 63 6 0
36 -14 65 -31z m-2703 -46 c6 -6 -105 -83 -119 -83 -16 0 7 24 51 54 54 38 58
39 68 29z m2612 -70 c30 -21 54 -43 55 -49 0 -17 -47 -64 -64 -64 -9 0 -23 11
-32 25 -15 23 -15 27 1 52 18 26 17 27 -3 41 -20 13 -30 32 -16 32 3 0 30 -17
59 -37z m-2564 6 c22 -22 22 -60 1 -67 -9 -3 -11 3 -7 20 4 16 1 29 -9 37 -25
21 -38 3 -31 -40 7 -42 -5 -69 -33 -69 -24 0 -52 31 -52 57 0 32 18 29 22 -4
2 -20 9 -28 23 -28 21 0 25 21 11 61 -4 15 -1 27 9 38 22 21 41 20 66 -5z m82
-102 l26 -34 -57 -47 -56 -48 -29 32 c-34 38 -28 54 8 20 20 -19 27 -21 40
-10 13 11 12 16 -6 41 -24 33 -15 38 16 9 19 -18 23 -18 41 -6 19 14 19 15 -3
38 -24 26 -29 38 -14 38 5 0 20 -15 34 -33z m2382 13 c-3 -5 -14 -10 -24 -10
-27 0 -47 -28 -32 -43 9 -9 19 -7 45 7 41 22 76 9 76 -29 0 -24 -32 -55 -57
-55 -20 0 -15 17 7 23 24 6 37 34 22 49 -7 7 -17 5 -33 -6 -59 -41 -110 6 -66
62 11 14 71 17 62 2z m-2283 -120 l33 -29 -53 -53 -53 -53 -29 33 c-38 41 -38
66 -1 103 37 37 62 37 103 -1z m2183 -40 l49 -50 -31 -32 c-37 -37 -58 -30
-23 7 21 23 22 27 9 41 -14 13 -18 12 -42 -6 -31 -25 -37 -12 -7 15 19 18 19
18 -1 46 -32 45 -8 34 46 -21z m-90 -65 c42 -41 30 -102 -24 -124 -76 -32
-140 77 -75 128 35 28 69 26 99 -4z m-1930 -28 l26 -22 -41 -58 c-23 -31 -44
-57 -48 -57 -13 1 -49 35 -61 59 -10 18 -10 29 -1 52 22 53 80 65 125 26z
m1791 -88 l37 -62 -24 -18 c-46 -35 -98 -15 -85 34 4 19 0 26 -19 35 -14 6
-25 16 -25 22 0 13 3 13 45 -7 41 -20 53 -13 31 19 -18 25 -20 38 -7 38 5 0
26 -28 47 -61z m-1715 -2 c1 -23 4 -55 8 -70 l6 -28 25 45 c13 25 31 46 38 46
12 0 0 -26 -57 -119 -13 -21 -31 -3 -32 32 -1 18 -4 46 -8 62 l-7 30 -24 -42
c-21 -38 -40 -55 -40 -36 0 17 72 133 81 128 5 -4 10 -25 10 -48z m119 -51 c0
-29 53 -57 73 -37 6 6 18 11 26 11 9 0 -7 -23 -39 -55 -30 -30 -60 -55 -67
-55 -10 0 -13 22 -13 80 0 47 4 80 10 80 6 0 10 -11 10 -24z m1431 -37 c16
-34 28 -66 26 -73 -8 -21 -72 -35 -99 -22 -34 17 -53 62 -39 92 8 19 64 64 78
64 2 0 17 -27 34 -61z m-143 -61 c28 -79 28 -84 -2 -92 -13 -3 -31 -9 -40 -12
-9 -3 -16 -2 -16 4 0 6 13 15 29 20 24 8 28 15 24 32 -6 21 -14 22 -55 5 -10
-4 -18 -3 -18 3 0 5 13 15 29 22 22 9 27 16 24 31 -6 20 -20 21 -67 3 -9 -3
-16 -2 -16 4 0 7 56 37 80 41 3 1 15 -27 28 -61z m-1047 22 c20 -11 27 -50 9
-50 -5 0 -10 7 -10 15 0 17 -29 34 -47 28 -21 -8 -15 -27 17 -55 35 -31 37
-39 10 -63 -22 -20 -67 -14 -77 11 -8 22 7 32 18 11 6 -9 19 -17 29 -17 29 0
25 34 -5 54 -24 16 -34 54 -18 69 10 10 52 8 74 -3z m83 -60 c6 -30 24 -40 30
-17 12 40 17 48 25 43 9 -6 -16 -124 -29 -140 -5 -4 -24 -3 -44 4 -47 15 -57
47 -24 75 18 15 23 26 17 41 -4 10 -8 25 -8 33 -2 25 26 -8 33 -39z m834 -11
c24 -33 41 -66 39 -72 -2 -7 -21 13 -43 43 l-39 54 -6 -29 c-4 -17 -7 -44 -8
-62 0 -17 -6 -35 -12 -39 -9 -5 -10 14 -4 72 11 116 13 118 73 33z m-654 11
c-1 -3 -5 -35 -9 -72 l-7 -68 -32 1 c-31 0 -80 16 -61 19 6 1 25 1 43 0 30 -1
33 1 30 22 -2 17 -10 24 -30 26 -16 2 -28 8 -28 14 0 7 13 8 35 5 32 -5 35 -4
35 19 0 17 -6 24 -19 24 -26 0 -52 11 -46 19 4 8 91 -1 89 -9z m520 -2 c21
-101 23 -120 12 -123 -35 -10 -76 -13 -81 -5 -3 5 11 12 30 16 29 5 36 10 33
28 -2 17 -9 20 -35 18 -18 -2 -33 1 -33 7 0 5 12 11 28 13 19 2 27 9 27 23 0
17 -6 20 -37 18 -41 -3 -52 13 -15 20 53 10 67 7 71 -15z m-120 -30 c13 -85
14 -108 6 -113 -11 -7 -20 20 -20 60 0 53 -9 65 -46 65 -19 0 -34 5 -34 10 0
6 20 10 45 10 42 0 44 -1 49 -32z m-278 -24 c-3 -26 -6 -60 -6 -76 0 -28 -1
-29 -37 -22 -45 8 -63 20 -63 44 0 24 22 41 57 43 22 2 29 8 31 30 2 15 8 27
14 27 7 0 9 -16 4 -46z m164 19 c56 -72 -42 -165 -108 -103 -26 25 -29 75 -6
108 23 34 86 31 114 -5z"/>
<path d="M2207 4253 c-4 -3 -7 -19 -7 -35 0 -28 13 -35 39 -19 11 7 10 13 -4
35 -19 29 -19 29 -28 19z"/>
<path d="M936 2105 c-8 -23 4 -45 24 -45 25 0 33 16 20 40 -13 24 -35 26 -44
5z"/>
<path d="M3862 1509 c-12 -18 -11 -24 2 -37 14 -14 17 -14 36 3 19 17 19 19 4
37 -22 23 -26 23 -42 -3z"/>
<path d="M1416 1339 c-30 -24 -33 -48 -8 -78 l17 -22 40 41 40 41 -24 20 c-29
24 -32 24 -65 -2z"/>
<path d="M3506 1234 c-44 -44 9 -118 65 -91 32 16 37 59 10 86 -25 25 -54 27
-75 5z"/>
<path d="M1573 1208 c-21 -27 -23 -51 -8 -74 22 -33 36 -30 68 17 23 32 27 43
17 54 -15 18 -64 20 -77 3z"/>
<path d="M3415 1096 c-23 -16 -14 -46 14 -46 25 0 34 14 26 40 -7 24 -15 25
-40 6z"/>
<path d="M1860 999 c0 -31 0 -32 20 -14 11 10 20 19 20 21 0 2 -9 8 -20 14
-18 10 -20 8 -20 -21z"/>
<path d="M3218 1058 c-30 -23 -27 -72 6 -93 19 -13 29 -13 49 -4 l25 11 -22
49 c-22 51 -32 57 -58 37z"/>
<path d="M2150 885 c-15 -18 -7 -29 26 -39 17 -5 22 -2 26 18 7 35 -29 49 -52
21z"/>
<path d="M2409 844 c-11 -14 -11 -18 6 -30 30 -23 47 -17 43 13 -4 32 -29 41
-49 17z"/>
<path d="M2569 907 c-30 -15 -38 -67 -14 -91 41 -40 111 7 87 59 -16 34 -43
46 -73 32z"/>
</g>
</svg>
